<?xml version="1.0" encoding="UTF-8" standalone="no"?>
<svg
   xmlns:dc="http://purl.org/dc/elements/1.1/"
   xmlns:cc="http://creativecommons.org/ns#"
   xmlns:rdf="http://www.w3.org/1999/02/22-rdf-syntax-ns#"
   xmlns:svg="http://www.w3.org/2000/svg"
   xmlns="http://www.w3.org/2000/svg"
   xmlns:sodipodi="http://sodipodi.sourceforge.net/DTD/sodipodi-0.dtd"
   xmlns:inkscape="http://www.inkscape.org/namespaces/inkscape"
   version="1.1"
   id="svg2"
   xml:space="preserve"
   width="60.888931"
   height="68.888931"
   viewBox="0 0 60.888931 68.888931"
   sodipodi:docname="worksteps-icon-2.ai"><metadata
     id="metadata8"><rdf:RDF><cc:Work
         rdf:about=""><dc:format>image/svg+xml</dc:format><dc:type
           rdf:resource="http://purl.org/dc/dcmitype/StillImage" /></cc:Work></rdf:RDF></metadata><defs
     id="defs6"><clipPath
       clipPathUnits="userSpaceOnUse"
       id="clipPath18"><path
         d="M 0,0 H 45.667 V 51.666 H 0 Z"
         id="path16" /></clipPath></defs><sodipodi:namedview
     pagecolor="#ffffff"
     bordercolor="#666666"
     borderopacity="1"
     objecttolerance="10"
     gridtolerance="10"
     guidetolerance="10"
     inkscape:pageopacity="0"
     inkscape:pageshadow="2"
     inkscape:window-width="640"
     inkscape:window-height="480"
     id="namedview4" /><g
     id="g10"
     inkscape:groupmode="layer"
     inkscape:label="worksteps-icon-2"
     transform="matrix(1.3333333,0,0,-1.3333333,0,68.888933)"><g
       id="g12"><g
         id="g14"
         clip-path="url(#clipPath18)"><g
           id="g20"
           transform="translate(26.959,0.447)"><path
             d="M 0,0 C -0.827,0.442 -1.654,0.884 -2.488,1.33 -3.842,0.013 -5.797,0.261 -6.717,2.062 -7.418,1.795 -8.131,1.803 -8.811,2.165 c -0.685,0.365 -1.104,0.94 -1.292,1.725 -1.444,-0.049 -2.415,0.589 -2.829,2.038 -1.273,-0.068 -2.237,0.425 -2.693,1.678 -0.455,1.25 0.227,2.187 0.918,3.232 -0.156,-0.01 -0.334,0.025 -0.463,-0.038 -1.007,-0.494 -1.977,-0.418 -2.927,0.144 -0.462,0.273 -0.929,0.536 -1.382,0.823 -0.819,0.518 -1.059,1.407 -0.568,2.242 2.06,3.5 4.13,6.995 6.209,10.484 0.489,0.821 1.405,1.043 2.243,0.577 0.511,-0.284 1.015,-0.583 1.509,-0.895 0.923,-0.583 1.419,-1.42 1.383,-2.521 -0.012,-0.35 0.113,-0.522 0.407,-0.67 0.631,-0.319 1.266,-0.385 1.93,-0.134 0.47,0.178 0.947,0.341 1.408,0.54 1.21,0.521 2.383,0.428 3.501,-0.231 0.359,-0.212 0.668,-0.217 1.047,-0.103 0.652,0.196 1.321,0.334 1.979,0.509 0.87,0.232 1.702,0.124 2.523,-0.217 0.509,-0.211 1.018,-0.444 1.55,-0.567 0.391,-0.09 0.819,-0.017 1.272,-0.017 -0.261,1.108 -0.177,2.133 0.625,2.832 0.759,0.661 1.664,1.188 2.574,1.63 0.693,0.337 1.444,-0.082 1.908,-0.862 1.311,-2.207 2.617,-4.417 3.925,-6.625 0.705,-1.188 1.413,-2.374 2.114,-3.564 0.604,-1.026 0.386,-1.924 -0.659,-2.509 -0.745,-0.417 -1.516,-0.795 -2.305,-1.121 -0.275,-0.114 -0.643,-0.062 -0.957,-0.013 -0.786,0.122 -0.834,0.125 -1.54,-0.431 C 13.228,9.156 13.357,8.164 12.707,7.19 12.01,6.143 10.989,5.885 9.811,6.183 9.123,4.447 8.321,3.892 6.731,4.064 6.564,3.228 6.184,2.518 5.385,2.108 4.607,1.708 3.823,1.757 3.073,2.092 2.842,1.668 2.692,1.193 2.381,0.878 2.02,0.512 1.516,0.286 1.074,0 Z M -1.579,2.596 C -1.513,2.543 -1.478,2.508 -1.438,2.483 -0.991,2.217 -0.548,1.946 -0.096,1.688 0.484,1.356 1.059,1.464 1.356,1.948 1.67,2.457 1.494,3.027 0.901,3.392 0.472,3.655 0.001,3.865 -0.381,4.184 -0.579,4.349 -0.743,4.718 -0.703,4.958 -0.666,5.176 -0.361,5.425 -0.121,5.509 0.06,5.573 0.347,5.437 0.548,5.322 1.605,4.715 2.643,4.076 3.7,3.47 4.278,3.139 4.956,3.377 5.158,3.945 5.33,4.426 5.155,4.884 4.654,5.186 3.527,5.865 2.391,6.53 1.262,7.206 0.781,7.494 0.632,7.909 0.854,8.297 1.079,8.693 1.509,8.771 1.993,8.495 2.416,8.253 2.833,8 3.253,7.751 4.413,7.064 5.57,6.372 6.736,5.693 7.184,5.432 7.682,5.492 7.996,5.809 8.317,6.134 8.392,6.641 8.123,7.014 7.986,7.203 7.78,7.359 7.577,7.481 6.086,8.376 4.583,9.251 3.098,10.153 2.878,10.287 2.616,10.515 2.577,10.735 2.536,10.97 2.667,11.378 2.849,11.475 3.083,11.6 3.502,11.598 3.738,11.467 5.086,10.716 6.403,9.91 7.732,9.123 8.528,8.651 9.323,8.175 10.125,7.711 10.493,7.499 10.876,7.498 11.227,7.75 11.561,7.99 11.741,8.357 11.597,8.73 11.484,9.02 11.238,9.318 10.971,9.48 9.084,10.631 7.177,11.748 5.276,12.874 4.021,13.617 2.765,14.358 1.523,15.091 1.48,15.063 1.46,15.057 1.453,15.045 1.406,14.961 1.361,14.876 1.318,14.79 0.857,13.885 0.143,13.283 -0.843,13.031 c -1.451,-0.372 -2.368,0.34 -2.369,1.825 -10e-4,0.667 0.017,1.335 -0.004,2.001 -0.034,1.106 0.024,2.183 0.823,3.089 -0.625,0.357 -1.216,0.348 -1.821,0.132 -0.718,-0.256 -1.421,-0.568 -2.154,-0.761 -1.035,-0.274 -2.022,-0.035 -2.944,0.531 -1.546,-2.61 -3.067,-5.179 -4.654,-7.857 0.266,0 0.437,-0.025 0.598,0.005 0.285,0.053 0.56,0.176 0.845,0.204 1.016,0.1 1.778,-0.361 2.352,-1.16 1.811,1.252 3.068,0.845 4.261,-1.349 2.025,-0.022 2.88,-1.065 2.693,-3.284 1.942,-0.662 2.359,-2.305 1.638,-3.811 m 13.807,9.12 c -0.087,0.15 -0.167,0.29 -0.249,0.428 -0.704,1.188 -1.414,2.372 -2.109,3.566 -0.301,0.515 -0.111,1.064 0.388,1.175 0.425,0.094 0.706,-0.099 0.92,-0.465 0.721,-1.235 1.452,-2.464 2.188,-3.689 0.395,-0.657 1.064,-0.959 1.7,-0.676 0.645,0.287 1.239,0.688 1.892,1.06 -2.142,3.615 -4.249,7.171 -6.371,10.753 C 10.055,23.553 9.579,23.277 9.108,22.992 8.236,22.465 8.049,21.73 8.558,20.844 8.824,20.379 9.114,19.926 9.362,19.451 9.557,19.076 9.427,18.742 9.089,18.52 8.74,18.291 8.401,18.366 8.133,18.677 8.007,18.823 7.908,18.997 7.822,19.17 7.702,19.412 7.567,19.461 7.283,19.396 6.814,19.289 6.3,19.168 5.846,19.258 5.043,19.417 4.277,19.751 3.484,19.97 3.071,20.084 2.617,20.221 2.213,20.154 1.335,20.01 0.473,19.759 -0.386,19.52 c -0.66,-0.183 -1.198,-0.626 -1.246,-1.297 -0.089,-1.24 -0.025,-2.492 -0.025,-3.739 0.832,-0.097 1.622,0.522 1.761,1.382 0.018,0.112 0.021,0.226 0.034,0.34 0.093,0.839 0.585,1.089 1.322,0.653 2.966,-1.751 5.947,-3.478 8.879,-5.285 0.706,-0.435 1.233,-0.484 1.826,0.058 0.012,0.011 0.02,0.026 0.063,0.084 m -24.711,12.152 c -0.419,-0.708 -0.807,-1.363 -1.196,-2.018 -1.64,-2.768 -3.276,-5.539 -4.927,-8.301 -0.194,-0.323 -0.2,-0.501 0.168,-0.677 0.394,-0.19 0.753,-0.451 1.135,-0.666 0.806,-0.451 1.561,-0.252 2.052,0.537 0.223,0.359 0.43,0.727 0.646,1.09 1.383,2.335 2.77,4.667 4.149,7.005 0.478,0.811 0.34,1.576 -0.38,2.048 -0.515,0.337 -1.057,0.633 -1.647,0.982 m 1.031,-17.346 c 0.006,-0.585 0.21,-0.904 0.641,-1.064 0.482,-0.18 0.869,-0.01 1.154,0.376 0.664,0.902 1.314,1.814 1.96,2.728 0.401,0.569 0.327,1.155 -0.168,1.495 -0.479,0.329 -1.025,0.206 -1.43,-0.348 -0.642,-0.877 -1.277,-1.76 -1.9,-2.651 -0.134,-0.192 -0.206,-0.427 -0.257,-0.536 m 3.958,-3.133 c 0.095,0.051 0.387,0.116 0.524,0.297 0.762,1.008 1.505,2.032 2.214,3.078 0.293,0.433 0.113,0.999 -0.312,1.282 C -5.479,8.32 -6.026,8.28 -6.337,7.866 -7.087,6.869 -7.831,5.865 -8.51,4.82 -8.929,4.177 -8.415,3.379 -7.494,3.389 m -6.786,5.126 c 0.024,-0.542 0.215,-0.873 0.645,-1.035 0.429,-0.162 0.815,-0.058 1.093,0.29 0.364,0.455 0.704,0.932 1.024,1.419 0.333,0.508 0.225,1.048 -0.235,1.37 -0.457,0.32 -0.998,0.231 -1.37,-0.251 C -13.449,9.884 -13.76,9.448 -14.058,9.004 -14.172,8.836 -14.23,8.63 -14.28,8.515 M -2.729,4.009 c -0.017,0.342 -0.207,0.67 -0.609,0.825 -0.391,0.15 -0.79,0.111 -1.07,-0.223 C -4.72,4.24 -5.008,3.843 -5.257,3.427 -5.491,3.039 -5.412,2.642 -5.106,2.308 -4.809,1.983 -4.429,1.937 -4.033,2.07 c 0.423,0.141 1.299,1.41 1.304,1.939"
             style="fill:#ffffff;fill-opacity:1;fill-rule:nonzero;stroke:none"
             id="path22" /></g><g
           id="g24"
           transform="translate(26.9751,48.9758)"><path
             d="m 0,0 h -0.579 c -7.128,0 -14.256,0.001 -21.384,0 -1.658,-0.001 -2.571,-0.91 -2.571,-2.558 v -38.325 c 0,-1.605 0.897,-2.518 2.498,-2.525 2.262,-0.009 4.524,-0.002 6.786,-0.002 0.147,0 0.293,0.002 0.44,-0.001 0.633,-0.014 0.935,-0.257 0.933,-0.747 -0.002,-0.483 -0.324,-0.746 -0.937,-0.746 -2.181,-0.003 -4.362,-0.007 -6.543,0.002 -0.534,0.002 -1.077,0.002 -1.602,0.089 -1.672,0.274 -2.936,1.709 -3.041,3.4 -0.013,0.195 -0.019,0.39 -0.019,0.585 -0.001,12.743 -0.002,25.485 -0.001,38.228 0.001,1.869 0.841,3.225 2.401,3.809 0.402,0.151 0.852,0.246 1.28,0.247 7.388,0.014 14.777,0.009 22.165,0.012 0.825,0 1.532,-0.294 2.108,-0.867 2.354,-2.341 4.701,-4.688 7.042,-7.042 0.586,-0.59 0.872,-1.313 0.871,-2.156 -0.005,-4.101 -0.002,-8.202 -0.002,-12.303 0,-0.098 0.008,-0.197 -0.008,-0.293 -0.069,-0.414 -0.342,-0.645 -0.739,-0.637 -0.395,0.008 -0.671,0.237 -0.712,0.663 -0.017,0.177 -0.008,0.357 -0.008,0.536 -10e-4,3.874 -10e-4,7.747 -10e-4,11.62 v 0.635 c -0.262,0 -0.468,-0.002 -0.674,0 C 6.224,-8.358 4.733,-8.448 3.268,-8.293 1.32,-8.087 0.024,-6.501 0.003,-4.536 -0.011,-3.218 0,-1.9 0,-0.582 Z m 7.053,-6.84 c -1.834,1.836 -3.695,3.698 -5.511,5.516 0,-1.167 -0.051,-2.434 0.017,-3.694 0.048,-0.903 0.94,-1.766 1.844,-1.808 C 4.649,-6.883 5.9,-6.84 7.053,-6.84"
             style="fill:#ffffff;fill-opacity:1;fill-rule:nonzero;stroke:none"
             id="path26" /></g><g
           id="g28"
           transform="translate(18.903,31.0012)"><path
             d="m 0,0 h -11.57 c -0.163,0 -0.327,-0.008 -0.488,0.009 -0.423,0.043 -0.653,0.308 -0.664,0.709 -0.012,0.407 0.23,0.666 0.634,0.742 0.142,0.027 0.292,0.012 0.438,0.012 h 23.288 c 0.13,0 0.261,0.008 0.39,-0.007 C 12.427,1.417 12.736,1.076 12.695,0.699 12.652,0.3 12.437,0.037 12.01,0.007 11.847,-0.004 11.684,0 11.522,0 H 0"
             style="fill:#ffffff;fill-opacity:1;fill-rule:nonzero;stroke:none"
             id="path30" /></g><g
           id="g32"
           transform="translate(18.9029,35.5088)"><path
             d="m 0,0 h -11.619 c -0.147,0 -0.295,-0.01 -0.439,0.008 -0.402,0.05 -0.707,0.389 -0.668,0.767 0.042,0.4 0.262,0.659 0.686,0.693 0.162,0.013 0.325,0.01 0.488,0.01 H 11.54 c 0.802,0 1.151,-0.217 1.162,-0.72 C 12.713,0.242 12.336,0 11.522,0 H 0"
             style="fill:#ffffff;fill-opacity:1;fill-rule:nonzero;stroke:none"
             id="path34" /></g><g
           id="g36"
           transform="translate(12.8619,40.6002)"><path
             d="m 0,0 c -1.903,0 -3.806,-0.009 -5.709,0.011 -0.256,0.002 -0.564,0.085 -0.754,0.244 -0.407,0.338 -0.247,1.006 0.26,1.18 0.194,0.066 0.416,0.073 0.624,0.074 3.741,0.004 7.482,0.003 11.223,0.003 0.097,0 0.195,0.003 0.292,-0.004 C 6.459,1.47 6.777,1.173 6.766,0.737 6.755,0.301 6.429,0.005 5.904,0.003 3.936,-0.004 1.968,0 0,0"
             style="fill:#ffffff;fill-opacity:1;fill-rule:nonzero;stroke:none"
             id="path38" /></g></g></g></g></svg>
