<?xml version="1.0" encoding="UTF-8" standalone="no"?>
<svg
   xmlns:dc="http://purl.org/dc/elements/1.1/"
   xmlns:cc="http://creativecommons.org/ns#"
   xmlns:rdf="http://www.w3.org/1999/02/22-rdf-syntax-ns#"
   xmlns:svg="http://www.w3.org/2000/svg"
   xmlns="http://www.w3.org/2000/svg"
   xmlns:sodipodi="http://sodipodi.sourceforge.net/DTD/sodipodi-0.dtd"
   xmlns:inkscape="http://www.inkscape.org/namespaces/inkscape"
   version="1.1"
   id="svg2"
   xml:space="preserve"
   width="69.333336"
   height="69.666664"
   viewBox="0 0 69.333336 69.666664"
   sodipodi:docname="worksteps-icon-5.ai"><metadata
     id="metadata8"><rdf:RDF><cc:Work
         rdf:about=""><dc:format>image/svg+xml</dc:format><dc:type
           rdf:resource="http://purl.org/dc/dcmitype/StillImage" /></cc:Work></rdf:RDF></metadata><defs
     id="defs6"><clipPath
       clipPathUnits="userSpaceOnUse"
       id="clipPath18"><path
         d="M 0,0 H 52 V 52.25 H 0 Z"
         id="path16" /></clipPath></defs><sodipodi:namedview
     pagecolor="#ffffff"
     bordercolor="#666666"
     borderopacity="1"
     objecttolerance="10"
     gridtolerance="10"
     guidetolerance="10"
     inkscape:pageopacity="0"
     inkscape:pageshadow="2"
     inkscape:window-width="640"
     inkscape:window-height="480"
     id="namedview4" /><g
     id="g10"
     inkscape:groupmode="layer"
     inkscape:label="worksteps-icon-5"
     transform="matrix(1.3333333,0,0,-1.3333333,0,69.666667)"><g
       id="g12"><g
         id="g14"
         clip-path="url(#clipPath18)"><g
           id="g20"
           transform="translate(16.6956,32.5314)"><path
             d="M 0,0 C 0,0 0.158,-3.149 0.567,-4.876 1.575,-9.108 5.332,-11.9 9.52,-11.9 c 4.186,0 7.935,2.783 8.946,7.024 C 18.88,-3.151 19.04,0 19.04,0 M 3.967,-10.313 c 0,0 0.329,-1.628 -0.794,-3.967 m 11.9,3.967 c 0,0 -0.329,-1.628 0.793,-3.967 m 18.246,-16.659 c 0,0 0,9.52 -6.346,12.693 l -11.106,4.76 m -31.733,-17.453 c 0,0 0,9.52 6.347,12.693 l 11.106,4.76 m -3.967,-5.554 -0.793,-4.759 6.347,5.553 c 0,0 5.553,-2.38 5.553,-12.693 m -5.553,12.693 -1.587,4.76 m 18.246,-5.554 0.793,-4.759 -6.346,5.553 c 0,0 -5.553,-2.38 -5.553,-12.693 m 5.553,12.693 1.587,4.76 m 0.793,-17.453 h 7.933 m -5.553,3.173 v -2.38 m 3.966,1.587 -0.793,-2.38 M -3.967,5.553 V 4.76 C -2.564,2.485 3.141,1.587 9.52,1.587 c 6.377,0 12.081,0.899 13.486,3.173 V 5.553 M 16.66,6.347 C 14.589,5.966 12.142,5.553 9.52,5.553 6.898,5.553 4.451,5.966 2.38,6.347 m 9.52,7.933 v 3.059 c 0,0.388 -0.278,0.731 -0.663,0.785 -0.557,0.08 -1.13,0.122 -1.717,0.122 -0.588,0 -1.161,-0.042 -1.718,-0.122 C 7.418,18.07 7.14,17.727 7.14,17.339 V 14.28 M 20.626,7.14 c 0,4.833 -3.607,9.062 -8.726,10.078 m -4.76,0 C 2.021,16.202 -1.587,11.973 -1.587,7.14"
             style="fill:none;stroke:#ffffff;stroke-width:2.017;stroke-linecap:butt;stroke-linejoin:miter;stroke-miterlimit:4;stroke-dasharray:none;stroke-opacity:1"
             id="path22" /></g></g></g></g></svg>
