<?xml version="1.0" encoding="UTF-8" standalone="no"?>
<svg
   xmlns:dc="http://purl.org/dc/elements/1.1/"
   xmlns:cc="http://creativecommons.org/ns#"
   xmlns:rdf="http://www.w3.org/1999/02/22-rdf-syntax-ns#"
   xmlns:svg="http://www.w3.org/2000/svg"
   xmlns="http://www.w3.org/2000/svg"
   xmlns:sodipodi="http://sodipodi.sourceforge.net/DTD/sodipodi-0.dtd"
   xmlns:inkscape="http://www.inkscape.org/namespaces/inkscape"
   version="1.1"
   id="svg2"
   xml:space="preserve"
   width="65.333336"
   height="67.777733"
   viewBox="0 0 65.333336 67.777733"
   sodipodi:docname="worksteps-icon-1.ai"><metadata
     id="metadata8"><rdf:RDF><cc:Work
         rdf:about=""><dc:format>image/svg+xml</dc:format><dc:type
           rdf:resource="http://purl.org/dc/dcmitype/StillImage" /></cc:Work></rdf:RDF></metadata><defs
     id="defs6"><clipPath
       clipPathUnits="userSpaceOnUse"
       id="clipPath18"><path
         d="M 0,0 H 49 V 50.833 H 0 Z"
         id="path16" /></clipPath></defs><sodipodi:namedview
     pagecolor="#ffffff"
     bordercolor="#666666"
     borderopacity="1"
     objecttolerance="10"
     gridtolerance="10"
     guidetolerance="10"
     inkscape:pageopacity="0"
     inkscape:pageshadow="2"
     inkscape:window-width="640"
     inkscape:window-height="480"
     id="namedview4" /><g
     id="g10"
     inkscape:groupmode="layer"
     inkscape:label="worksteps-icon-1"
     transform="matrix(1.3333333,0,0,-1.3333333,0,67.777733)"><g
       id="g12"><g
         id="g14"
         clip-path="url(#clipPath18)"><g
           id="g20"
           transform="translate(0.1257,42.7856)"><path
             d="m 0,0 c 0.418,0.7 0.676,1.334 1.105,1.808 1.048,1.157 2.17,2.246 3.273,3.353 1.439,1.444 2.4,1.441 3.833,-0.015 9.326,-9.478 18.65,-18.958 27.974,-28.437 2.013,-2.047 4.093,-4.031 6.011,-6.165 1.081,-1.201 2.038,-2.571 2.796,-4.005 1.244,-2.352 2.31,-4.803 3.379,-7.246 0.205,-0.47 0.294,-1.279 0.037,-1.588 -0.238,-0.285 -1.082,-0.288 -1.538,-0.105 -2.831,1.143 -5.65,2.323 -8.423,3.602 -0.924,0.426 -1.809,1.071 -2.531,1.802 C 24.379,-25.312 12.868,-13.601 1.367,-1.88 0.859,-1.363 0.499,-0.696 0,0 M 41.391,-31.789 C 31.6,-21.824 21.869,-11.919 12.344,-2.226 11.072,-3.5 9.747,-4.828 8.675,-5.901 c 9.64,-9.804 19.366,-19.695 29.062,-29.556 1.143,1.148 2.42,2.43 3.654,3.668 M 6.669,-4.282 c 1.374,1.353 2.683,2.641 3.833,3.773 C 9.089,0.982 7.653,2.497 6.398,3.822 5.084,2.545 3.748,1.246 2.53,0.061 3.919,-1.396 5.338,-2.885 6.669,-4.282 m 39.07,-35.477 c -1.045,2.255 -1.964,4.237 -2.858,6.168 -1.172,-1.191 -2.272,-2.31 -3.411,-3.467 1.957,-0.843 3.944,-1.7 6.269,-2.701"
             style="fill:#ffffff;fill-opacity:1;fill-rule:nonzero;stroke:none"
             id="path22" /></g><g
           id="g24"
           transform="translate(30.4715,28.9606)"><path
             d="m 0,0 c 0.767,-1.051 1.533,-2.101 2.364,-3.239 1.264,1.416 2.157,2.416 3.333,3.733 -1.566,1.448 -3.279,3.032 -4.991,4.615 0.1,0.149 0.2,0.298 0.3,0.447 C 1.326,5.391 1.712,5.295 1.954,5.051 3.352,3.645 4.716,2.204 6.149,0.715 6.821,1.471 7.421,2.147 8.113,2.926 7.331,3.763 6.437,4.72 5.542,5.677 5.654,5.821 5.766,5.965 5.877,6.109 6.349,5.745 6.853,5.416 7.283,5.007 7.798,4.517 8.25,3.958 8.686,3.478 9.466,4.263 10.131,4.932 10.895,5.7 10.209,6.381 9.445,7.099 8.739,7.871 8.562,8.064 8.572,8.434 8.496,8.722 8.777,8.639 9.139,8.641 9.325,8.458 c 0.744,-0.734 1.433,-1.525 2.149,-2.302 0.67,0.752 1.196,1.343 1.795,2.016 -0.436,1.086 -2.149,1.547 -2.359,3.036 0.121,0.106 0.242,0.212 0.363,0.318 0.769,-1.04 1.538,-2.08 2.399,-3.244 1.106,1.225 1.822,2.018 2.506,2.776 C 13.797,13.476 11.37,15.94 8.894,18.454 4.092,13.539 -0.764,8.569 -5.778,3.437 c -0.461,0.592 -0.787,1.01 -1.16,1.487 0.238,0.257 0.51,0.566 0.798,0.859 4.439,4.516 8.878,9.033 13.322,13.545 1.365,1.386 2.106,1.384 3.474,-0.003 2.164,-2.194 4.327,-4.389 6.479,-6.595 1.316,-1.351 1.322,-2.133 0.038,-3.443 C 12.443,4.466 7.707,-0.348 2.92,-5.22 c -0.481,0.549 -1.132,0.716 -1.053,1.781 0.044,0.597 -1.102,1.27 -1.68,1.937 -0.282,0.325 -0.49,0.716 -0.732,1.077 C -0.363,-0.283 -0.182,-0.142 0,0"
             style="fill:#ffffff;fill-opacity:1;fill-rule:nonzero;stroke:none"
             id="path26" /></g><g
           id="g28"
           transform="translate(15.5177,23.2635)"><path
             d="m 0,0 c -4.341,-4.385 -8.607,-8.694 -12.845,-12.975 2.554,-2.589 5.002,-5.072 7.486,-7.591 0.839,0.89 1.734,1.839 2.72,2.886 -1.575,1.636 -3.204,3.328 -4.833,5.021 0.14,0.151 0.279,0.303 0.419,0.454 1.935,-1.304 3.29,-3.314 5.134,-4.853 0.738,0.822 1.485,1.654 2.238,2.493 -0.744,0.862 -1.546,1.791 -2.349,2.72 0.155,0.148 0.31,0.295 0.465,0.443 0.871,-0.855 1.743,-1.709 2.675,-2.622 0.697,0.729 1.363,1.427 2.044,2.139 -0.846,0.9 -1.672,1.779 -2.559,2.723 1.07,0.71 1.331,-0.292 1.76,-0.672 0.493,-0.437 0.842,-1.042 1.168,-1.464 0.863,0.766 1.487,1.319 2.547,2.26 -1.082,0.842 -2.033,1.582 -2.984,2.322 0.096,0.111 0.193,0.223 0.289,0.335 1.383,-0.145 1.787,-1.764 2.966,-2.287 0.322,0.306 0.656,0.622 1.093,1.038 0.378,-0.363 0.758,-0.727 1.21,-1.16 C 8.374,-9.104 8.153,-9.392 7.9,-9.649 4.055,-13.565 0.206,-17.479 -3.645,-21.39 c -1.413,-1.434 -2.166,-1.436 -3.58,-0.005 -2.195,2.223 -4.39,4.446 -6.567,6.687 -1.067,1.097 -1.193,1.954 -0.291,2.881 4.238,4.353 8.515,8.668 12.866,13.086 C -0.806,0.833 -0.439,0.454 0,0"
             style="fill:#ffffff;fill-opacity:1;fill-rule:nonzero;stroke:none"
             id="path30" /></g></g></g></g></svg>
