<?xml version="1.0" encoding="UTF-8" standalone="no"?>
<svg
   xmlns:dc="http://purl.org/dc/elements/1.1/"
   xmlns:cc="http://creativecommons.org/ns#"
   xmlns:rdf="http://www.w3.org/1999/02/22-rdf-syntax-ns#"
   xmlns:svg="http://www.w3.org/2000/svg"
   xmlns="http://www.w3.org/2000/svg"
   xmlns:sodipodi="http://sodipodi.sourceforge.net/DTD/sodipodi-0.dtd"
   xmlns:inkscape="http://www.inkscape.org/namespaces/inkscape"
   version="1.1"
   id="svg2"
   xml:space="preserve"
   width="77"
   height="74"
   viewBox="0 0 77 74"
   sodipodi:docname="worksteps-icon-3.ai"><metadata
     id="metadata8"><rdf:RDF><cc:Work
         rdf:about=""><dc:format>image/svg+xml</dc:format><dc:type
           rdf:resource="http://purl.org/dc/dcmitype/StillImage" /></cc:Work></rdf:RDF></metadata><defs
     id="defs6"><clipPath
       clipPathUnits="userSpaceOnUse"
       id="clipPath18"><path
         d="M 0,0 H 57.75 V 55.5 H 0 Z"
         id="path16" /></clipPath></defs><sodipodi:namedview
     pagecolor="#ffffff"
     bordercolor="#666666"
     borderopacity="1"
     objecttolerance="10"
     gridtolerance="10"
     guidetolerance="10"
     inkscape:pageopacity="0"
     inkscape:pageshadow="2"
     inkscape:window-width="640"
     inkscape:window-height="480"
     id="namedview4" /><g
     id="g10"
     inkscape:groupmode="layer"
     inkscape:label="worksteps-icon-3"
     transform="matrix(1.3333333,0,0,-1.3333333,0,74)"><g
       id="g12"><g
         id="g14"
         clip-path="url(#clipPath18)"><g
           id="g20"
           transform="translate(44.2048,0.6368)"><path
             d="m 0,0 -1.21,0.833 -5.841,1.756 c -0.256,0.077 -0.507,0.172 -0.745,0.296 -2.339,1.22 -4.351,3.165 -5.791,5.339 l -5.299,8.43 c -0.76,1.146 -1.273,2.155 -0.081,2.945 1.191,0.789 4.322,-0.819 5.081,-1.965 l 3.444,-5.198 -11.515,17.827 c -0.759,1.146 -0.406,2.73 0.785,3.519 1.192,0.789 2.787,0.497 3.547,-0.649 l 7.804,-11.777 -1.177,1.776 c -0.76,1.146 -0.406,2.73 0.785,3.519 1.191,0.789 2.787,0.497 3.546,-0.649 l 1.752,-2.642 -0.647,0.976 c -0.759,1.146 -0.406,2.729 0.785,3.518 1.191,0.789 2.787,0.498 3.547,-0.648 l 1.794,-2.709 -0.69,1.042 c -0.759,1.146 -0.406,2.729 0.785,3.518 1.192,0.79 2.787,0.498 3.547,-0.648 l 3.865,-5.834 c 1.974,-2.978 3.149,-6.228 3.831,-9.739 0.072,-0.37 0.09,-0.751 0.06,-1.127 L 11.785,9.444 12.337,7.05"
             style="fill:none;stroke:#ffffff;stroke-width:2.082;stroke-linecap:butt;stroke-linejoin:miter;stroke-miterlimit:4;stroke-dasharray:none;stroke-opacity:1"
             id="path22" /></g><g
           id="g24"
           transform="translate(19.5298,12.093)"><path
             d="m 0,0 h -15.862 c -0.974,0 -1.763,0.789 -1.763,1.762 v 37.894 c 0,0.974 0.789,1.763 1.763,1.763 h 28.199 c 0.974,0 1.763,-0.789 1.763,-1.763 V 22.031 M 7.931,28.2 h -19.387 v 7.05 H 7.931 Z"
             style="fill:none;stroke:#ffffff;stroke-width:2.082;stroke-linecap:butt;stroke-linejoin:miter;stroke-miterlimit:4;stroke-dasharray:none;stroke-opacity:1"
             id="path26" /></g><g
           id="g28"
           transform="translate(11.5985,33.243)"><path
             d="m 0,0 c 0,-0.973 -0.789,-1.762 -1.762,-1.762 -0.974,0 -1.763,0.789 -1.763,1.762 0,0.973 0.789,1.763 1.763,1.763 C -0.789,1.763 0,0.973 0,0 Z"
             style="fill:none;stroke:#ffffff;stroke-width:2.082;stroke-linecap:butt;stroke-linejoin:miter;stroke-miterlimit:4;stroke-dasharray:none;stroke-opacity:1"
             id="path30" /></g><g
           id="g32"
           transform="translate(18.6486,33.243)"><path
             d="m 0,0 c 0,-0.973 -0.789,-1.762 -1.763,-1.762 -0.973,0 -1.762,0.789 -1.762,1.762 0,0.973 0.789,1.763 1.762,1.763 C -0.789,1.763 0,0.973 0,0 Z"
             style="fill:none;stroke:#ffffff;stroke-width:2.082;stroke-linecap:butt;stroke-linejoin:miter;stroke-miterlimit:4;stroke-dasharray:none;stroke-opacity:1"
             id="path34" /></g><g
           id="g36"
           transform="translate(11.5985,26.193)"><path
             d="m 0,0 c 0,-0.973 -0.789,-1.762 -1.762,-1.762 -0.974,0 -1.763,0.789 -1.763,1.762 0,0.973 0.789,1.762 1.763,1.762 C -0.789,1.762 0,0.973 0,0 Z"
             style="fill:none;stroke:#ffffff;stroke-width:2.082;stroke-linecap:butt;stroke-linejoin:miter;stroke-miterlimit:4;stroke-dasharray:none;stroke-opacity:1"
             id="path38" /></g><g
           id="g40"
           transform="translate(18.6486,26.193)"><path
             d="m 0,0 c 0,-0.973 -0.789,-1.762 -1.763,-1.762 -0.973,0 -1.762,0.789 -1.762,1.762 0,0.973 0.789,1.762 1.762,1.762 C -0.789,1.762 0,0.973 0,0 Z"
             style="fill:none;stroke:#ffffff;stroke-width:2.082;stroke-linecap:butt;stroke-linejoin:miter;stroke-miterlimit:4;stroke-dasharray:none;stroke-opacity:1"
             id="path42" /></g><g
           id="g44"
           transform="translate(11.5985,19.143)"><path
             d="m 0,0 c 0,-0.973 -0.789,-1.762 -1.762,-1.762 -0.974,0 -1.763,0.789 -1.763,1.762 0,0.973 0.789,1.762 1.763,1.762 C -0.789,1.762 0,0.973 0,0 Z"
             style="fill:none;stroke:#ffffff;stroke-width:2.082;stroke-linecap:butt;stroke-linejoin:miter;stroke-miterlimit:4;stroke-dasharray:none;stroke-opacity:1"
             id="path46" /></g><g
           id="g48"
           transform="translate(18.6486,19.143)"><path
             d="m 0,0 c 0,-0.973 -0.789,-1.762 -1.763,-1.762 -0.973,0 -1.762,0.789 -1.762,1.762 0,0.973 0.789,1.762 1.762,1.762 C -0.789,1.762 0,0.973 0,0 Z"
             style="fill:none;stroke:#ffffff;stroke-width:2.082;stroke-linecap:butt;stroke-linejoin:miter;stroke-miterlimit:4;stroke-dasharray:none;stroke-opacity:1"
             id="path50" /></g></g></g></g></svg>
