<?xml version="1.0" encoding="UTF-8" standalone="no"?>
<svg
   xmlns:dc="http://purl.org/dc/elements/1.1/"
   xmlns:cc="http://creativecommons.org/ns#"
   xmlns:rdf="http://www.w3.org/1999/02/22-rdf-syntax-ns#"
   xmlns:svg="http://www.w3.org/2000/svg"
   xmlns="http://www.w3.org/2000/svg"
   xmlns:sodipodi="http://sodipodi.sourceforge.net/DTD/sodipodi-0.dtd"
   xmlns:inkscape="http://www.inkscape.org/namespaces/inkscape"
   version="1.1"
   id="svg2"
   xml:space="preserve"
   width="90.222267"
   height="64.666664"
   viewBox="0 0 90.222267 64.666664"
   sodipodi:docname="worksteps-icon-4.ai"><metadata
     id="metadata8"><rdf:RDF><cc:Work
         rdf:about=""><dc:format>image/svg+xml</dc:format><dc:type
           rdf:resource="http://purl.org/dc/dcmitype/StillImage" /></cc:Work></rdf:RDF></metadata><defs
     id="defs6"><clipPath
       clipPathUnits="userSpaceOnUse"
       id="clipPath18"><path
         d="M 0,0 H 67.667 V 48.5 H 0 Z"
         id="path16" /></clipPath></defs><sodipodi:namedview
     pagecolor="#ffffff"
     bordercolor="#666666"
     borderopacity="1"
     objecttolerance="10"
     gridtolerance="10"
     guidetolerance="10"
     inkscape:pageopacity="0"
     inkscape:pageshadow="2"
     inkscape:window-width="640"
     inkscape:window-height="480"
     id="namedview4" /><g
     id="g10"
     inkscape:groupmode="layer"
     inkscape:label="worksteps-icon-4"
     transform="matrix(1.3333333,0,0,-1.3333333,0,64.666667)"><g
       id="g12"><g
         id="g14"
         clip-path="url(#clipPath18)"><g
           id="g20"
           transform="translate(21.4424,4.267)"><path
             d="m 0,0 c 0.165,0.29 0.275,0.633 0.502,0.861 3.206,3.23 6.43,6.442 9.641,9.666 0.271,0.272 0.563,0.384 0.938,0.373 0.476,-0.014 1.466,0.701 1.591,1.149 0.038,0.135 -0.012,0.301 -0.044,0.448 -0.107,0.5 -0.04,0.937 0.361,1.306 0.434,0.399 0.838,0.83 1.261,1.242 0.452,0.44 1.211,0.454 1.68,0.038 0.021,-0.019 0.041,-0.038 0.061,-0.058 0.783,-0.799 0.685,-0.742 1.455,0.01 0.673,0.657 1.352,1.307 2.033,1.955 0.45,0.429 1.086,0.446 1.562,0.045 0.14,-0.117 0.265,-0.252 0.394,-0.381 4.041,-4.042 8.082,-8.086 12.124,-12.129 0.548,-0.548 0.551,-0.547 1.095,-0.002 2.421,2.425 4.842,4.851 7.263,7.276 0.337,0.338 0.67,0.678 1.01,1.011 0.235,0.23 0.258,0.434 0,0.674 -0.38,0.355 -0.743,0.727 -1.103,1.102 -0.237,0.248 -0.443,0.233 -0.678,-0.005 -0.671,-0.68 -1.348,-1.353 -2.028,-2.024 -0.729,-0.72 -1.455,-0.713 -2.168,0.002 -1.001,1.002 -2.008,1.997 -3.01,2.998 -5.9,5.898 -11.8,11.795 -17.696,17.696 -0.634,0.635 -1.254,1.284 -1.868,1.939 -0.467,0.499 -0.524,1.053 -0.11,1.602 0.275,0.365 0.639,0.663 0.966,0.988 0.393,0.392 0.413,0.508 0.03,0.901 -0.225,0.232 -0.188,0.381 0.023,0.59 1.03,1.016 2.052,2.04 3.066,3.072 0.23,0.235 0.43,0.249 0.634,0.008 0.269,-0.317 0.493,-0.27 0.763,0.013 0.328,0.345 0.668,0.688 1.048,0.971 0.682,0.506 1.143,0.451 1.746,-0.151 2.872,-2.868 5.743,-5.738 8.613,-8.608 4.639,-4.638 9.266,-9.287 13.928,-13.901 0.734,-0.725 0.612,-1.641 -0.018,-2.193 -0.507,-0.443 -0.961,-0.946 -1.434,-1.426 -0.374,-0.379 -0.372,-0.477 0.013,-0.865 0.594,-0.598 1.187,-1.197 1.785,-1.791 0.617,-0.613 0.705,-1.352 0.004,-2.047 C 41.929,8.886 38.452,5.391 34.966,1.905 34.376,1.316 33.688,1.315 33.09,1.911 c -2.943,2.937 -5.883,5.876 -8.823,8.815 -1.202,1.202 -2.402,2.406 -3.604,3.607 -0.398,0.399 -0.497,0.401 -0.896,0.012 -0.412,-0.402 -0.809,-0.819 -1.228,-1.215 -0.24,-0.228 -0.222,-0.427 -0.003,-0.645 0.179,-0.178 0.358,-0.356 0.533,-0.539 0.527,-0.552 0.537,-1.173 0.016,-1.72 C 18.688,9.809 18.275,9.406 17.874,8.994 17.486,8.596 17.025,8.494 16.486,8.581 16.324,8.606 16.114,8.535 15.974,8.439 15.78,8.308 15.639,8.102 15.461,7.943 15.195,7.704 15.116,7.464 15.224,7.088 15.361,6.611 15.301,6.156 14.888,5.745 12.966,3.837 11.077,1.897 9.171,-0.027 7.926,-1.283 6.664,-2.522 5.427,-3.786 5.16,-4.058 4.96,-4.094 4.644,-3.865 3.29,-2.887 1.928,-1.922 0.554,-0.973 0.213,-0.738 0.039,-0.471 0.117,-0.053 0.078,-0.035 0.039,-0.018 0,0"
             style="fill:#ffffff;fill-opacity:1;fill-rule:nonzero;stroke:none"
             id="path22" /></g><g
           id="g24"
           transform="translate(57.8294,13.1842)"><path
             d="m 0,0 c -0.912,-0.962 -1.767,-1.864 -2.718,-2.867 -0.12,0.177 -0.195,0.335 -0.311,0.452 -3.831,3.836 -7.663,7.67 -11.5,11.5 -1.091,1.088 -2.6,1.121 -3.734,0.086 -0.508,-0.464 -0.999,-0.946 -1.483,-1.434 -0.176,-0.178 -0.31,-0.212 -0.54,-0.083 -0.799,0.448 -1.648,0.372 -2.492,0.162 -0.175,-0.043 -0.321,-0.205 -0.526,-0.343 -4.05,4.162 -8.118,8.342 -12.219,12.556 -7.149,-7.353 -14.275,-14.682 -21.401,-22.011 -0.03,0.024 -0.06,0.048 -0.089,0.072 0.076,0.103 0.147,0.211 0.229,0.31 3.334,4.038 6.671,8.073 9.997,12.118 0.126,0.155 0.192,0.405 0.192,0.611 0.012,3.047 0.008,6.095 0.008,9.143 v 0.565 h 5.825 v -2.739 c 0.034,-0.01 0.068,-0.02 0.101,-0.03 0.249,0.295 0.498,0.591 0.746,0.887 1.153,1.377 2.309,2.752 3.454,4.136 0.185,0.224 0.344,0.288 0.637,0.185 3.103,-1.092 6.213,-2.167 9.32,-3.249 2.658,-0.926 5.317,-1.852 7.97,-2.792 0.241,-0.085 0.474,-0.245 0.661,-0.421 3.302,-3.109 6.595,-6.226 9.893,-9.339 C -5.418,5.056 -2.854,2.641 -0.289,0.226 -0.178,0.122 -0.049,0.038 0,0"
             style="fill:#ffffff;fill-opacity:1;fill-rule:nonzero;stroke:none"
             id="path26" /></g><g
           id="g28"
           transform="translate(47.8584,10.1459)"><path
             d="m 0,0 c -0.926,0 -1.959,-0.006 -2.991,0.009 -0.104,0.001 -0.223,0.11 -0.307,0.196 -0.983,1 -1.964,2.001 -2.932,3.015 -0.088,0.092 -0.155,0.338 -0.099,0.411 0.544,0.713 0.631,1.503 0.456,2.315 C -3.917,3.965 -1.949,1.973 0,0"
             style="fill:#ffffff;fill-opacity:1;fill-rule:nonzero;stroke:none"
             id="path30" /></g><g
           id="g32"
           transform="translate(19.0595,14.5075)"><path
             d="m 0,0 c -0.491,0 -0.982,0.006 -1.473,-0.003 -0.273,-0.005 -0.421,0.081 -0.418,0.383 0.008,0.926 0.006,1.852 0.002,2.778 -10e-4,0.249 0.112,0.356 0.357,0.355 C -0.479,3.51 0.573,3.51 1.626,3.514 1.874,3.514 1.98,3.398 1.98,3.154 1.977,2.228 1.976,1.302 1.981,0.376 1.982,0.109 1.866,-0.006 1.6,-0.002 1.067,0.005 0.533,0 0,0"
             style="fill:#ffffff;fill-opacity:1;fill-rule:nonzero;stroke:none"
             id="path34" /></g><g
           id="g36"
           transform="translate(24.1387,14.5077)"><path
             d="m 0,0 c -0.505,0 -1.011,0.007 -1.516,-0.003 -0.285,-0.005 -0.406,0.111 -0.404,0.399 0.008,0.912 0.006,1.824 0.002,2.736 -0.002,0.264 0.107,0.384 0.376,0.383 1.039,-0.005 2.077,-0.006 3.115,0 C 1.84,3.516 1.954,3.406 1.952,3.138 1.947,2.226 1.947,1.313 1.954,0.401 1.957,0.119 1.849,-0.009 1.558,-0.003 1.039,0.008 0.519,0 0,0"
             style="fill:#ffffff;fill-opacity:1;fill-rule:nonzero;stroke:none"
             id="path38" /></g><g
           id="g40"
           transform="translate(19.1151,22.5739)"><path
             d="M 0,0 C 0.491,0 0.983,-0.011 1.474,0.004 1.792,0.013 1.934,-0.099 1.929,-0.433 1.915,-1.303 1.919,-2.174 1.927,-3.044 1.929,-3.35 1.831,-3.52 1.494,-3.517 c -0.926,0.009 -1.853,-0.01 -2.779,0.011 -0.618,0.014 -0.659,0.079 -0.66,0.695 -10e-4,0.744 -0.002,1.488 0,2.232 0.001,0.572 0.008,0.577 0.597,0.579 0.45,0.001 0.899,0 1.348,0"
             style="fill:#ffffff;fill-opacity:1;fill-rule:nonzero;stroke:none"
             id="path42" /></g><g
           id="g44"
           transform="translate(22.2224,20.8905)"><path
             d="M 0,0 C 0,0.435 0.005,0.87 -0.002,1.305 -0.006,1.57 0.109,1.686 0.377,1.685 1.415,1.679 2.453,1.679 3.491,1.685 3.759,1.686 3.871,1.574 3.869,1.307 3.863,0.41 3.861,-0.488 3.869,-1.386 3.872,-1.7 3.703,-1.822 3.428,-1.821 2.587,-1.819 1.746,-1.805 0.906,-1.794 0.85,-1.793 0.795,-1.776 0.739,-1.773 c -0.741,0.045 -0.741,0.044 -0.741,0.805 l 0,0.968 z"
             style="fill:#ffffff;fill-opacity:1;fill-rule:nonzero;stroke:none"
             id="path46" /></g></g></g></g></svg>
