<?xml version="1.0" encoding="UTF-8" standalone="no"?>
<svg
   xmlns:dc="http://purl.org/dc/elements/1.1/"
   xmlns:cc="http://creativecommons.org/ns#"
   xmlns:rdf="http://www.w3.org/1999/02/22-rdf-syntax-ns#"
   xmlns:svg="http://www.w3.org/2000/svg"
   xmlns="http://www.w3.org/2000/svg"
   xmlns:sodipodi="http://sodipodi.sourceforge.net/DTD/sodipodi-0.dtd"
   xmlns:inkscape="http://www.inkscape.org/namespaces/inkscape"
   version="1.1"
   id="svg2"
   xml:space="preserve"
   width="96.444397"
   height="50.666668"
   viewBox="0 0 96.444397 50.666668"
   sodipodi:docname="worksteps-icon-6.ai"><metadata
     id="metadata8"><rdf:RDF><cc:Work
         rdf:about=""><dc:format>image/svg+xml</dc:format><dc:type
           rdf:resource="http://purl.org/dc/dcmitype/StillImage" /></cc:Work></rdf:RDF></metadata><defs
     id="defs6"><clipPath
       clipPathUnits="userSpaceOnUse"
       id="clipPath18"><path
         d="M 0,0 H 72.333 V 38 H 0 Z"
         id="path16" /></clipPath></defs><sodipodi:namedview
     pagecolor="#ffffff"
     bordercolor="#666666"
     borderopacity="1"
     objecttolerance="10"
     gridtolerance="10"
     guidetolerance="10"
     inkscape:pageopacity="0"
     inkscape:pageshadow="2"
     inkscape:window-width="640"
     inkscape:window-height="480"
     id="namedview4" /><g
     id="g10"
     inkscape:groupmode="layer"
     inkscape:label="worksteps-icon-6"
     transform="matrix(1.3333333,0,0,-1.3333333,0,50.666667)"><g
       id="g12"><g
         id="g14"
         clip-path="url(#clipPath18)"><g
           id="g20"
           transform="translate(71.5553,16.7421)"><path
             d="m 0,0 c -0.002,0.006 -0.004,0.011 -0.006,0.016 -0.01,0.034 -0.022,0.067 -0.036,0.099 -0.004,0.008 -0.006,0.016 -0.01,0.024 0,0.001 -0.001,0.002 -0.001,0.003 -1.119,2.346 -1.792,4.152 -2.284,5.47 -0.81,2.173 -1.299,3.484 -2.725,4.147 -1.282,0.596 -3.167,0.57 -6.922,0.518 -0.603,-0.008 -1.256,-0.017 -1.964,-0.024 h -4.455 v 8.492 c 0,0.479 -0.388,0.867 -0.868,0.867 h -23.083 -0.303 -4.817 c -0.209,0 -0.411,-0.075 -0.568,-0.212 L -59.02,9.876 c -0.193,-0.167 -0.302,-0.411 -0.299,-0.667 l 0.13,-9.958 c 0.002,-0.132 0.034,-0.263 0.094,-0.381 l 1.081,-2.128 c -0.193,0.058 -0.396,0.113 -0.612,0.162 -0.467,0.107 -0.933,-0.185 -1.04,-0.653 -0.107,-0.467 0.186,-0.932 0.653,-1.039 1.361,-0.311 2.093,-0.863 2.306,-1.045 l 0.476,-0.938 c 0.148,-0.291 0.447,-0.475 0.774,-0.475 h 4.425 c 0.37,0 0.7,0.235 0.821,0.585 l 0.678,1.963 c 1.007,-0.034 2.121,-0.184 3.325,-0.51 l 0.112,-9.154 h -23.013 c -0.142,0.811 -0.138,2.304 1.483,3.187 0.3,0.163 0.477,0.486 0.451,0.827 -0.001,0.01 -0.068,1.068 0.269,2.258 0.131,0.461 -0.137,0.941 -0.598,1.072 -0.461,0.13 -0.941,-0.137 -1.071,-0.598 -0.264,-0.931 -0.33,-1.786 -0.34,-2.315 -2.374,-1.61 -2.156,-4.328 -1.673,-5.606 0.128,-0.337 0.451,-0.56 0.812,-0.56 h 24.559 c 0.232,0 0.454,0.093 0.617,0.258 0.163,0.165 0.253,0.388 0.25,0.62 l -0.048,3.944 h 6.144 c 0.446,-2.894 2.879,-4.403 5.262,-4.404 2.383,0 4.816,1.51 5.262,4.404 h 8.455 3.974 c 0.446,-2.894 2.879,-4.403 5.262,-4.404 2.383,0 4.816,1.51 5.262,4.404 h 2.129 c 1.505,0 2.73,1.224 2.73,2.729 V -0.6 C 0.082,-0.398 0.054,-0.196 0,0 M -3.963,5.006 C -3.55,3.899 -3.012,2.456 -2.196,0.64 L -7.674,0.652 V 8.528 C -6.82,8.48 -6.21,8.379 -5.793,8.185 -5.051,7.84 -4.743,7.099 -3.963,5.006 m -7.997,3.536 c 0.971,0.013 1.816,0.025 2.551,0.024 v -7.91 l -3.663,0.009 v 7.862 c 0.389,0.005 0.759,0.01 1.112,0.015 m -2.847,-0.025 v -8.718 c 0,-0.146 0.036,-0.283 0.1,-0.404 h -3.696 v 9.122 z m -26.983,9.203 0.055,0.157 h 6.127 v -18.18 h -6.182 z m 14.296,-18.023 h -6.378 v 18.18 h 6.378 z m 7.356,9.778 c -0.003,-0.03 -0.005,-0.06 -0.005,-0.09 v -9.688 h -5.616 v 18.18 h 5.621 z m -27.012,8.402 h 3.578 L -50.776,-2.979 C -53.01,-3.1 -54.688,-3.7 -55.626,-4.13 l -1.83,3.606 -0.122,9.353 z M -54.449,-5.51 c 0.71,0.283 1.748,0.601 3.056,0.743 L -51.65,-5.51 Z m 5.505,2.518 5.419,15.687 v -13.3 h -1.748 c -0.479,0 -0.868,-0.389 -0.868,-0.868 v -1.961 c -0.991,0.245 -1.928,0.382 -2.803,0.442 m 15.952,-10.951 c -1.758,0 -3.55,1.094 -3.599,3.536 0.049,2.442 1.841,3.536 3.6,3.536 1.758,0 3.55,-1.094 3.598,-3.536 -0.048,-2.443 -1.841,-3.536 -3.599,-3.536 m 10e-4,8.807 h -10e-4 c -2.382,0 -4.816,-1.509 -5.262,-4.403 h -6.151 v 7.198 h 24.262 v -7.198 h -7.587 c -0.446,2.894 -2.879,4.403 -5.261,4.403 m 14.584,2.795 h 14.271 v -6.205 c 0,-0.427 -0.271,-0.79 -0.649,-0.931 -0.471,2.854 -2.888,4.341 -5.253,4.341 h -10e-4 c -2.382,0 -4.816,-1.509 -5.262,-4.403 h -3.106 z m 8.368,-11.602 c -1.6,0 -3.228,0.907 -3.545,2.911 0.164,0.158 0.267,0.379 0.267,0.625 0,0.245 -0.103,0.467 -0.266,0.625 0.316,2.004 1.944,2.911 3.544,2.911 h 10e-4 c 1.758,0 3.55,-1.094 3.598,-3.536 -0.048,-2.443 -1.841,-3.536 -3.599,-3.536 m 8.385,5.397 c 0,-0.527 -0.413,-0.959 -0.933,-0.99 0.12,0.307 0.187,0.641 0.187,0.99 v 7.073 c 0,0.136 -0.032,0.264 -0.088,0.378 l 0.834,-0.002 z"
             style="fill:#ffffff;fill-opacity:1;fill-rule:nonzero;stroke:none"
             id="path22" /></g><g
           id="g24"
           transform="translate(38.5636,7.6306)"><path
             d="m 0,0 c -0.733,0 -1.327,-0.594 -1.327,-1.327 0,-0.732 0.594,-1.326 1.327,-1.326 0.733,0 1.327,0.594 1.327,1.326 C 1.327,-0.594 0.733,0 0,0"
             style="fill:#ffffff;fill-opacity:1;fill-rule:nonzero;stroke:none"
             id="path26" /></g><g
           id="g28"
           transform="translate(61.5166,7.6306)"><path
             d="m 0,0 c -0.733,0 -1.327,-0.594 -1.327,-1.327 0,-0.732 0.594,-1.326 1.327,-1.326 0.733,0 1.327,0.594 1.327,1.326 C 1.327,-0.594 0.733,0 0,0"
             style="fill:#ffffff;fill-opacity:1;fill-rule:nonzero;stroke:none"
             id="path30" /></g><g
           id="g32"
           transform="translate(6.8674,7.8554)"><path
             d="M 0,0 C -0.305,-0.221 -0.441,-0.624 -0.307,-0.996 -0.18,-1.35 0.154,-1.57 0.509,-1.57 c 0.098,0 0.197,0.017 0.294,0.052 L 5.62,0.217 C 6.071,0.38 6.304,0.877 6.142,1.328 5.979,1.779 5.482,2.013 5.031,1.85 L 4.725,1.74 2.728,6.51 C 2.548,6.939 2.061,7.15 1.624,6.988 L 0.938,6.732 0.348,8.066 C 0.155,8.505 -0.358,8.703 -0.796,8.509 -1.234,8.315 -1.433,7.803 -1.239,7.365 L -0.692,6.126 -1.466,5.837 C -1.687,5.755 -1.865,5.586 -1.959,5.369 -2.053,5.153 -2.055,4.907 -1.964,4.689 Z M 2.985,1.403 1.522,0.858 -0.014,4.526 1.449,5.071 Z"
             style="fill:#ffffff;fill-opacity:1;fill-rule:nonzero;stroke:none"
             id="path34" /></g><g
           id="g36"
           transform="translate(16.4176,5.8035)"><path
             d="m 0,0 c 0.032,-0.047 0.068,-0.092 0.108,-0.132 0.04,-0.04 0.085,-0.075 0.132,-0.107 0.047,-0.032 0.098,-0.059 0.15,-0.08 0.053,-0.021 0.107,-0.039 0.162,-0.05 0.056,-0.011 0.114,-0.017 0.17,-0.017 0.227,0 0.451,0.093 0.614,0.254 0.04,0.04 0.075,0.085 0.107,0.132 0.032,0.047 0.059,0.098 0.08,0.151 0.021,0.052 0.039,0.106 0.05,0.161 C 1.584,0.369 1.59,0.425 1.59,0.482 1.59,0.71 1.497,0.934 1.336,1.095 1.173,1.257 0.949,1.35 0.722,1.35 0.494,1.35 0.27,1.257 0.108,1.095 -0.053,0.934 -0.146,0.71 -0.146,0.482 -0.146,0.425 -0.14,0.369 -0.13,0.312 -0.118,0.257 -0.101,0.203 -0.08,0.151 -0.058,0.098 -0.031,0.047 0,0"
             style="fill:#ffffff;fill-opacity:1;fill-rule:nonzero;stroke:none"
             id="path38" /></g><g
           id="g40"
           transform="translate(22.0587,6.6716)"><path
             d="m 0,0 c 0.032,-0.047 0.068,-0.092 0.108,-0.132 0.162,-0.161 0.384,-0.254 0.613,-0.254 0.228,0 0.452,0.093 0.614,0.254 0.04,0.04 0.076,0.085 0.108,0.132 0.032,0.047 0.058,0.098 0.08,0.15 0.021,0.053 0.038,0.107 0.049,0.162 0.011,0.055 0.017,0.113 0.017,0.17 0,0.056 -0.006,0.113 -0.017,0.169 C 1.561,0.707 1.544,0.761 1.523,0.814 1.501,0.866 1.475,0.916 1.443,0.964 1.411,1.011 1.375,1.056 1.335,1.096 1.133,1.297 0.834,1.389 0.551,1.332 0.496,1.322 0.442,1.305 0.39,1.283 0.337,1.262 0.286,1.234 0.239,1.203 0.192,1.172 0.147,1.136 0.107,1.096 0.067,1.056 0.032,1.011 0,0.964 -0.032,0.916 -0.059,0.866 -0.08,0.814 -0.101,0.761 -0.118,0.707 -0.13,0.651 -0.141,0.595 -0.146,0.538 -0.146,0.482 -0.146,0.425 -0.141,0.367 -0.13,0.312 -0.118,0.257 -0.101,0.203 -0.08,0.15 -0.058,0.098 -0.032,0.047 0,0"
             style="fill:#ffffff;fill-opacity:1;fill-rule:nonzero;stroke:none"
             id="path42" /></g><g
           id="g44"
           transform="translate(9.2818,17.2788)"><path
             d="m 0,0 c 0.047,-0.031 0.097,-0.058 0.15,-0.079 0.051,-0.022 0.107,-0.039 0.162,-0.049 0.056,-0.012 0.113,-0.018 0.17,-0.018 0.056,0 0.113,0.006 0.169,0.018 0.056,0.01 0.11,0.027 0.162,0.049 C 0.866,-0.058 0.916,-0.031 0.964,0 1.011,0.032 1.055,0.068 1.095,0.108 1.257,0.27 1.349,0.493 1.349,0.722 1.349,0.779 1.344,0.835 1.332,0.892 1.322,0.947 1.304,1.001 1.283,1.054 1.262,1.106 1.234,1.157 1.203,1.204 1.171,1.251 1.136,1.296 1.095,1.336 1.055,1.376 1.011,1.412 0.964,1.443 0.916,1.475 0.866,1.502 0.813,1.523 0.761,1.544 0.707,1.562 0.651,1.572 0.54,1.595 0.424,1.595 0.312,1.572 0.257,1.562 0.201,1.544 0.15,1.523 0.097,1.502 0.047,1.475 0,1.443 -0.048,1.412 -0.092,1.376 -0.132,1.336 -0.172,1.296 -0.208,1.251 -0.24,1.204 -0.271,1.157 -0.298,1.106 -0.32,1.054 -0.342,1.001 -0.358,0.947 -0.37,0.892 -0.38,0.835 -0.386,0.779 -0.386,0.722 -0.386,0.493 -0.293,0.27 -0.132,0.108 -0.092,0.068 -0.048,0.032 0,0"
             style="fill:#ffffff;fill-opacity:1;fill-rule:nonzero;stroke:none"
             id="path46" /></g><g
           id="g48"
           transform="translate(1.1518,13.3304)"><path
             d="m 0,0 c 0.021,-0.053 0.048,-0.104 0.08,-0.151 0.032,-0.047 0.067,-0.092 0.107,-0.132 0.04,-0.04 0.085,-0.076 0.132,-0.107 0.047,-0.032 0.098,-0.059 0.15,-0.08 0.053,-0.021 0.107,-0.039 0.162,-0.05 0.057,-0.011 0.113,-0.017 0.17,-0.017 0.229,0 0.452,0.093 0.614,0.254 0.04,0.04 0.076,0.085 0.108,0.132 0.031,0.047 0.058,0.098 0.079,0.151 0.022,0.052 0.039,0.106 0.049,0.161 0.012,0.057 0.018,0.113 0.018,0.17 0,0.057 -0.006,0.114 -0.018,0.17 C 1.641,0.556 1.624,0.61 1.602,0.663 1.581,0.715 1.554,0.766 1.523,0.813 1.491,0.861 1.455,0.905 1.415,0.945 1.213,1.146 0.914,1.239 0.631,1.183 0.576,1.171 0.522,1.154 0.469,1.133 0.417,1.111 0.366,1.084 0.319,1.053 0.272,1.021 0.227,0.985 0.187,0.945 0.147,0.905 0.112,0.861 0.08,0.813 0.048,0.766 0.021,0.715 0,0.663 -0.021,0.61 -0.039,0.556 -0.049,0.501 -0.061,0.445 -0.066,0.388 -0.066,0.331 c 0,-0.057 0.005,-0.113 0.017,-0.17 C -0.039,0.106 -0.021,0.052 0,0"
             style="fill:#ffffff;fill-opacity:1;fill-rule:nonzero;stroke:none"
             id="path50" /></g></g></g></g></svg>
