<svg width="1100mm" height="248.32mm" version="1.1" viewBox="0 0 1100 248.32" xmlns="http://www.w3.org/2000/svg">
 <g stroke-width=".26458">
  <g transform="translate(434.66,11.639)" fill="#4d4d4d">
   <rect class="cls-1" transform="rotate(135)" x="229.24" y="71.374" width="81.949" height="81.949" rx="10.2"/>
   <rect class="cls-2" transform="rotate(135)" x="229.24" y="169.71" width="81.949" height="81.949" rx="10.2"/>
   <rect class="cls-3" transform="rotate(135)" x="330.11" y="71.375" width="81.949" height="81.949" rx="10.2"/>
   <path class="cls-4" d="m-434.44 148.3 15.221 15.221a11.083 11.083 0 0 0 15.69 0l42.259-42.259a11.083 11.083 0 0 0 0-15.69l-42.259-42.259a11.112 11.112 0 0 0-15.69 0l-4.1592 4.1592c-2.5453 18.484-7.202 52.525-11.062 80.828z"/>
  </g>
  <path class="cls-5" d="m40.75 142.61-40.746 17.328c3.9688-28.289 8.7154-62.315 11.271-80.798l33.708 48.371a11.112 11.112 0 0 1-4.2333 15.1z" fill="#b3b3b3"/>
  <path class="cls-6" d="m33.36 141.24-33.356 18.693c3.9688-28.289 8.7154-62.315 11.271-80.798l26.339 47.011a11.112 11.112 0 0 1-4.2545 15.094z" fill="#fff"/>
 </g>
 <g fill="#4d4d4d" stroke-width=".26458">
  <path d="m292.63 116.4c18.256 3.3867 38.592 10.014 37.121 34.47-0.88371 19.886-19.886 29.165-38.894 29.165-15.909 0-31.671-8.5434-39.037-25.188l15.61-7.0723c4.5667 10.017 13.994 15.468 23.717 15.468 10.604 0 20.77-4.5667 21.36-13.7 0.8837-11.785-10.755-14.878-23.569-16.793-17.529-2.6458-35.205-10.753-35.354-31.522 1.1774-19.002 19.151-28.871 37.415-28.871 15.61 0 30.345 6.0404 37.571 22.537l-15.468 6.776c-4.4185-9.7208-12.52-13.404-22.095-13.404-10.163 0-19.738 4.7122-20.328 13.552-0.74613 9.1334 10.89 12.52 21.95 14.584z"/>
  <path d="m343.43 109.76c13.11-9.2789 39.037-12.965 48.17 2.5056 11.642-17.383 49.212-12.375 49.212 15.023v51.118h-16.055v-50.535c0.88371-13.846-25.043-12.372-25.043-0.59002v51.118h-15.909v-51.403c0-10.753-15.61-12.816-24.453-7.0697v58.473h-15.923z"/>
  <path d="m465.4 121.85-9.4271-8.6916c8.2497-9.1334 17.97-12.081 27.694-12.081 14.878 0 30.049 7.956 30.049 25.191v48.906c-22.831 8.3952-59.952 10.163-59.952-22.244 0.14552-24.011 26.956-28.871 43.749-21.508v-4.7122c-2.495-13.994-22.823-14.878-32.112-4.8604zm32.112 23.421c-8.1015-3.8312-27.104-5.1567-27.839 7.6729-0.88371 15.468 16.497 15.026 27.839 11.933z"/>
  <path d="m558.51 101.51a39.447 39.447 0 0 1 8.6916 0.88371v14.288c-8.3952-2.5056-21.802 1.0319-21.802 11.343v50.382h-16.203v-50.676c0-10.898 5.8923-18.854 14.142-22.979 2.2093-1.1774 4.7122-1.9129 7.366-2.503 0.29369 0 0.58738-0.14817 0.88371-0.14817 1.4711-0.44185 4.7122-0.59002 6.9215-0.59002z"/>
  <path d="m609.48 179.15c-17.825 2.6458-32.996-4.8604-32.996-26.662v-78.367h16.055v27.988h14.584v16.203h-14.584v34.033c0 12.081 8.1016 12.816 16.933 12.816z"/>
  <path d="m656.03 178.41h-18.113l-30.205-104.29h17.677l18.415 65.259c-0.14816 0 3.093 19.444 3.093 19.444h1.3229l3.2412-20.182c5.7441-19.148 10.753-30.639 16.497-49.213h14.288l16.203 49.496c-0.14817 0 4.4185 19.579 4.4185 19.579h1.3229l2.3574-19.444 18.256-64.963h17.529l-30.178 104.32h-18.119l-16.499-50.969-2.0479-13.11h-1.0319s-2.503 12.965-2.3574 12.965z"/>
  <path d="m756.34 73.968c6.0404 0 10.319 4.4212 10.319 10.319 0 5.7468-4.2704 10.319-10.319 10.319-5.7441 0-10.165-4.5667-10.165-10.319 0-5.8976 4.4212-10.319 10.165-10.319zm-7.8078 27.988v76.465h16.203v-76.465z"/>
  <path d="m840.32 73.968v101.2c-22.244 8.8371-57.743 11.642-60.248-19.741v-28.136c-0.14552-22.537 26.662-31.671 44.045-23.283v-30.041zm-16.216 43.897c-9.1334-5.7441-26.662-3.683-27.842 8.6916v28.871c0.73818 13.406 19.151 13.848 27.842 10.017z"/>
  <path d="m865.19 182.98c9.1308 12.078 33.732 15.319 33.584-6.0404-18.854 7.8079-44.043-1.3229-44.043-23.717v-26.366c0-29.898 40.362-32.409 59.51-19.005v70.562c0 33.88-45.074 35.205-58.775 13.846zm32.996-64.963c-7.956-5.5986-26.958-4.4185-27.252 8.8397v26.514c0.73554 12.52 19.002 13.846 27.252 7.9534z"/>
  <path d="m985.99 164.42c-5.8923 10.456-17.383 15.61-27.4 15.61-15.026 0-30.197-8.6916-30.197-26.22v-26.808c0-17.825 15.171-26.22 30.197-26.22 14.584 0 29.758 8.3952 29.758 26.22v20.77h-43.603v6.0404c-0.29633 12.52 21.505 15.61 27.694 2.7993zm-13.258-37.711c0-14.288-28.575-14.436-27.988 0.29369v7.366h27.988z"/>
  <path d="m1035.3 179.15c-17.825 2.6458-32.996-4.8604-32.996-26.662v-78.367h16.055v27.988h14.584v16.203h-14.584v34.033c0 12.081 8.1015 12.816 16.933 12.816z"/>
  <path d="m1055.1 153.96c7.8079 13.552 28.284 14.729 28.874 2.3548 0-5.5959-6.6305-7.2178-11.933-8.3952-10.753-2.0611-27.104-6.3341-27.104-23.569 0-16.933 15.468-23.283 28.429-23.283 8.1015 0 17.383 3.5375 24.895 10.901l-9.7234 10.607c-8.3952-8.3979-26.662-9.1334-27.546 0.44185-0.5874 6.776 7.5142 8.9958 13.848 10.017 12.226 2.0611 25.04 6.776 25.188 22.979 0 29.61-44.929 32.112-57.007 5.7441z"/>
 </g>
</svg>
