<svg width="55" height="55" viewBox="0 0 55 55" fill="none" xmlns="http://www.w3.org/2000/svg"><rect width="54.498" height="54.498" rx="27.249" fill="#01A7EE"/><path d="M35.879 29.462C35.4549 28.9256 35.5775 28.6906 35.879 28.2155C35.8841 28.2104 39.3737 23.3879 39.7364 21.7531C39.9152 21.1554 39.7364 20.7212 38.873 20.7212H36.0118C35.2812 20.7212 34.9491 21.0992 34.7703 21.5181C34.7703 21.5181 33.3141 25.0022 31.2551 27.2602C30.5909 27.9141 30.2844 28.1236 29.9216 28.1236C29.7428 28.1236 29.4669 27.9141 29.4669 27.3164V21.7429C29.4669 21.0277 29.2625 20.7109 28.6597 20.7109H24.1635C23.7088 20.7109 23.4329 21.043 23.4329 21.3546C23.4329 22.0341 24.465 22.1873 24.5723 24.098V28.236C24.5723 29.1402 24.4088 29.3088 24.0409 29.3088C23.0702 29.3088 20.7097 25.8094 19.3098 21.8042C19.0237 21.0277 18.7478 20.7109 18.0121 20.7109H15.1509C14.3334 20.7109 14.1699 21.089 14.1699 21.5079C14.1699 22.2486 15.1407 25.9473 18.6916 30.8312C21.0571 34.162 24.3883 35.9705 27.4181 35.9705C29.237 35.9705 29.4618 35.5669 29.4618 34.8772C29.4618 31.6945 29.2983 31.3931 30.2077 31.3931C30.6318 31.3931 31.3573 31.6026 33.0587 33.2118C35.0002 35.1173 35.3221 35.9705 36.4103 35.9705H39.2715C40.089 35.9705 40.4977 35.5669 40.2627 34.7801C39.716 33.1147 36.0425 29.6868 35.879 29.462Z" fill="#fff"/></svg>